{"title":"18+ Madmast Barkhaa 2015 Hindi Movies DVDRip XviD +Sample ☻rDX☻","uid":13026955,"size":739496353,"categoryP":"video","categoryS":"movies","magnet":"?xt=urn:btih:e1b822cc38bfa33bacd37e86525f15152c0da6d1&amp;dn=18%2B+Madmast+Barkhaa+2015+Hindi+Movies+DVDRip+XviD+%2BSample+%E2%98%BBrDX%E2%98%BB&amp;tr=udp%3A%2F%2Ftracker.leechers-paradise.org%3A6969&amp;tr=udp%3A%2F%2Fzer0day.ch%3A1337&amp;tr=udp%3A%2F%2Fopen.demonii.com%3A1337&amp;tr=udp%3A%2F%2Ftracker.coppersurfer.tk%3A6969&amp;tr=udp%3A%2F%2Fexodus.desync.com%3A6969","seeders":1,"leechers":2,"uploader":"basicssom","files":2,"time":1450413818,"description":"----------------------------------------------------------------\r\n18+ Madmast Barkhaa 2015 Hindi Movies DVDRip XviD AAC with Sample ~ ☻rDX☻\r\n\r\nSCREEN SHOTS &amp; POSTER:\r\n  \nhttp://doctorhosts.com/2015/12/MadmastBarkhaa/11.html  \nhttp://doctorhosts.com/2015/12/MadmastBarkhaa/1.html  \nhttp://doctorhosts.com/2015/12/MadmastBarkhaa/2.html  \nhttp://doctorhosts.com/2015/12/MadmastBarkhaa/3.html  \nhttp://doctorhosts.com/2015/12/MadmastBarkhaa/4.html  \nhttp://doctorhosts.com/2015/12/MadmastBarkhaa/5.html  \nhttp://doctorhosts.com/2015/12/MadmastBarkhaa/6.html  \nhttp://doctorhosts.com/2015/12/MadmastBarkhaa/7.html  \nhttp://doctorhosts.com/2015/12/MadmastBarkhaa/8.html  \nhttp://doctorhosts.com/2015/12/MadmastBarkhaa/9.html  \nhttp://doctorhosts.com/2015/12/MadmastBarkhaa/10.html\r\n\r\nFormat                                   : Matroska\r\nFormat version                           : Version 4 / Version 2\r\nFile size                                : 691 MiB\r\nDuration                                 : 1h 42mn\r\nOverall bit rate                         : 947 Kbps\r\nMovie name                               : 18+ Madmast Barkhaa 2015 Hindi Movies DVDRip XviD AAC ~ rDX ~\r\n\r\nVideo\r\nID                                       : 1\r\nFormat                                   : MPEG-4 Visual\r\nFormat profile                           : Advanced   \r\nFormat settings, BVOP                    : Yes\r\nFormat settings, QPel                    : No\r\nFormat settings, GMC                     : No warppoints\r\nFormat settings, Matrix                  : Default (H.263)\r\nCodec ID                                 : V_MS/VFW/FOURCC / XVID\r\nCodec ID/Hint                            : XviD\r\nDuration                                 : 1h 42mn\r\nBit rate                                 : 800 Kbps\r\nWidth                                    : 640 pixels\r\nHeight                                   : 272 pixels\r\nDisplay aspect ratio                     : 2.35:1\r\nFrame rate mode                          : Constant\r\nFrame rate                               : 25.000 fps\r\nColor space                              : YUV\r\nChroma subsampling                       : 4:2:0\r\nBit depth                                : 8 bits\r\nScan type                                : Progressive\r\nCompression mode                         : Lossy\r\nBits/(Pixel*Frame)                       : 0.184\r\nStream size                              : 584 MiB (84%)\r\nTitle                                    : ~ rDX ~\r\nWriting library                          : XviD 1.2.1 (UTC 2008-12-04)\r\nDefault                                  : Yes\r\nForced                                   : No\r\n\r\nAudio\r\nID                                       : 2\r\nFormat                                   : MPEG Audio\r\nFormat version                           : Version 1\r\nFormat profile                           : Layer 3\r\nMode                                     : Joint stereo\r\nMode extension                           : MS Stereo\r\nCodec ID                                 : A_MPEG/L3\r\nCodec ID/Hint                            : MP3\r\nDuration                                 : 1h 42mn\r\nBit rate mode                            : Constant\r\nBit rate                                 : 128 Kbps\r\nChannel(s)                               : 2 channels\r\nSampling rate                            : 48.0 KHz\r\nCompression mode                         : Lossy\r\nStream size                              : 93.4 MiB (14%)\r\nTitle                                    : ~ rDX ~\r\nWriting library                          : LAME3.99r\r\nEncoding settings                        : -m j -V 4 -q 2 -lowpass 17 -b 128\r\nDefault                                  : Yes\r\nForced                                   : No\r\n\r\nIMDB                                     \r\nna","torrent":{"xt":"urn:btih:e1b822cc38bfa33bacd37e86525f15152c0da6d1","amp;dn":"18%2B+Madmast+Barkhaa+2015+Hindi+Movies+DVDRip+XviD+%2BSample+%E2%98%BBrDX%E2%98%BB","amp;tr":["udp%3A%2F%2Ftracker.leechers-paradise.org%3A6969","udp%3A%2F%2Fzer0day.ch%3A1337","udp%3A%2F%2Fopen.demonii.com%3A1337","udp%3A%2F%2Ftracker.coppersurfer.tk%3A6969","udp%3A%2F%2Fexodus.desync.com%3A6969"],"infoHash":"e1b822cc38bfa33bacd37e86525f15152c0da6d1","infoHashBuffer":{"type":"Buffer","data":[225,184,34,204,56,191,163,59,172,211,126,134,82,95,21,21,44,13,166,209]},"announce":[],"urlList":[]}}